<svg aria-roledescription="er" viewBox="0 0 440.29412841796875 364" style="max-width: 440.294px; background-color: white;" xmlns:xlink="http://www.w3.org/1999/xlink" xmlns="http://www.w3.org/2000/svg" width="100%" id="mermaid-0"><style>#mermaid-0{font-family:"trebuchet ms",verdana,arial,sans-serif;font-size:16px;fill:#000000;}#mermaid-0 .error-icon{fill:#552222;}#mermaid-0 .error-text{fill:#552222;stroke:#552222;}#mermaid-0 .edge-thickness-normal{stroke-width:2px;}#mermaid-0 .edge-thickness-thick{stroke-width:3.5px;}#mermaid-0 .edge-pattern-solid{stroke-dasharray:0;}#mermaid-0 .edge-pattern-dashed{stroke-dasharray:3;}#mermaid-0 .edge-pattern-dotted{stroke-dasharray:2;}#mermaid-0 .marker{fill:#000000;stroke:#000000;}#mermaid-0 .marker.cross{stroke:#000000;}#mermaid-0 svg{font-family:"trebuchet ms",verdana,arial,sans-serif;font-size:16px;}#mermaid-0 .entityBox{fill:#cde498;stroke:#13540c;}#mermaid-0 .attributeBoxOdd{fill:#ffffff;stroke:#13540c;}#mermaid-0 .attributeBoxEven{fill:#f2f2f2;stroke:#13540c;}#mermaid-0 .relationshipLabelBox{fill:hsl(78.1578947368, 58.4615384615%, 84.5098039216%);opacity:0.7;background-color:hsl(78.1578947368, 58.4615384615%, 84.5098039216%);}#mermaid-0 .relationshipLabelBox rect{opacity:0.5;}#mermaid-0 .relationshipLine{stroke:#000000;}#mermaid-0 .entityTitleText{text-anchor:middle;font-size:18px;fill:#000000;}#mermaid-0 :root{--mermaid-font-family:"trebuchet ms",verdana,arial,sans-serif;}</style><g/><defs><marker orient="auto" markerHeight="18" markerWidth="18" refY="9" refX="0" id="ONLY_ONE_START"><path d="M9,0 L9,18 M15,0 L15,18" fill="none" stroke="gray"/></marker></defs><defs><marker orient="auto" markerHeight="18" markerWidth="18" refY="9" refX="18" id="ONLY_ONE_END"><path d="M3,0 L3,18 M9,0 L9,18" fill="none" stroke="gray"/></marker></defs><defs><marker orient="auto" markerHeight="18" markerWidth="30" refY="9" refX="0" id="ZERO_OR_ONE_START"><circle r="6" cy="9" cx="21" fill="white" stroke="gray"/><path d="M9,0 L9,18" fill="none" stroke="gray"/></marker></defs><defs><marker orient="auto" markerHeight="18" markerWidth="30" refY="9" refX="30" id="ZERO_OR_ONE_END"><circle r="6" cy="9" cx="9" fill="white" stroke="gray"/><path d="M21,0 L21,18" fill="none" stroke="gray"/></marker></defs><defs><marker orient="auto" markerHeight="36" markerWidth="45" refY="18" refX="18" id="ONE_OR_MORE_START"><path d="M0,18 Q 18,0 36,18 Q 18,36 0,18 M42,9 L42,27" fill="none" stroke="gray"/></marker></defs><defs><marker orient="auto" markerHeight="36" markerWidth="45" refY="18" refX="27" id="ONE_OR_MORE_END"><path d="M3,9 L3,27 M9,18 Q27,0 45,18 Q27,36 9,18" fill="none" stroke="gray"/></marker></defs><defs><marker orient="auto" markerHeight="36" markerWidth="57" refY="18" refX="18" id="ZERO_OR_MORE_START"><circle r="6" cy="18" cx="48" fill="white" stroke="gray"/><path d="M0,18 Q18,0 36,18 Q18,36 0,18" fill="none" stroke="gray"/></marker></defs><defs><marker orient="auto" markerHeight="36" markerWidth="57" refY="18" refX="39" id="ZERO_OR_MORE_END"><circle r="6" cy="18" cx="9" fill="white" stroke="gray"/><path d="M21,18 Q39,0 57,18 Q39,36 21,18" fill="none" stroke="gray"/></marker></defs><path style="stroke: gray; fill: none;" marker-start="url(#ZERO_OR_MORE_START)" marker-end="url(#ONLY_ONE_END)" d="M112.14102172851562,154L112.14102172851562,162.33333333333334C112.14102172851562,170.66666666666666,112.14102172851562,187.33333333333334,123.69122505187988,204.439660151304C135.24142837524414,221.5459869692747,158.34183502197266,239.0919739385494,169.8920383453369,247.86496742318673L181.44224166870117,256.6379609078241" class="er relationshipLine"/><path style="stroke: gray; fill: none;" marker-start="url(#ZERO_OR_MORE_START)" marker-end="url(#ONLY_ONE_END)" d="M362.28809356689453,143L362.28809356689453,153.16666666666666C362.28809356689453,163.33333333333334,362.28809356689453,183.66666666666666,350.7378902435303,202.60632681797065C339.187686920166,221.5459869692747,316.0872802734375,239.0919739385494,304.53707695007324,247.86496742318673L292.986873626709,256.6379609078241" class="er relationshipLine"/><g transform="translate(20,20 )" id="entity-Post-370696ff-9d20-4546-997c-f3b4c337b70d"><rect height="134" width="184.28204345703125" y="0" x="0" class="er entityBox"/><text style="dominant-baseline: middle; text-anchor: middle; font-size: 12px;" transform="translate(92.14102172851562,12)" y="0" x="0" id="text-entity-Post-370696ff-9d20-4546-997c-f3b4c337b70d" class="er entityLabel">Post</text><rect height="22" width="37.39605712890625" y="24" x="0" class="er attributeBoxOdd"/><text style="dominant-baseline: middle; font-size: 10.2px;" transform="translate(5,35)" y="0" x="0" id="text-entity-Post-370696ff-9d20-4546-997c-f3b4c337b70d-attr-1-type" class="er entityLabel">Int</text><rect height="22" width="76.98576354980469" y="24" x="37.39605712890625" class="er attributeBoxOdd"/><text style="dominant-baseline: middle; font-size: 10.2px;" transform="translate(42.39605712890625,35)" y="0" x="0" id="text-entity-Post-370696ff-9d20-4546-997c-f3b4c337b70d-attr-1-name" class="er entityLabel">id</text><rect height="22" width="22.68768310546875" y="24" x="114.38182067871094" class="er attributeBoxOdd"/><text style="dominant-baseline: middle; font-size: 10.2px;" transform="translate(119.38182067871094,35)" y="0" x="0" id="text-entity-Post-370696ff-9d20-4546-997c-f3b4c337b70d-attr-1-key" class="er entityLabel">PK</text><rect height="22" width="47.21253967285156" y="24" x="137.0695037841797" class="er attributeBoxOdd"/><text style="dominant-baseline: middle; font-size: 10.2px;" transform="translate(142.0695037841797,35)" y="0" x="0" id="text-entity-Post-370696ff-9d20-4546-997c-f3b4c337b70d-attr-1-comment" class="er entityLabel"/><rect height="22" width="37.39605712890625" y="46" x="0" class="er attributeBoxEven"/><text style="dominant-baseline: middle; font-size: 10.2px;" transform="translate(5,57)" y="0" x="0" id="text-entity-Post-370696ff-9d20-4546-997c-f3b4c337b70d-attr-2-type" class="er entityLabel">Int</text><rect height="22" width="76.98576354980469" y="46" x="37.39605712890625" class="er attributeBoxEven"/><text style="dominant-baseline: middle; font-size: 10.2px;" transform="translate(42.39605712890625,57)" y="0" x="0" id="text-entity-Post-370696ff-9d20-4546-997c-f3b4c337b70d-attr-2-name" class="er entityLabel">authorId</text><rect height="22" width="22.68768310546875" y="46" x="114.38182067871094" class="er attributeBoxEven"/><text style="dominant-baseline: middle; font-size: 10.2px;" transform="translate(119.38182067871094,57)" y="0" x="0" id="text-entity-Post-370696ff-9d20-4546-997c-f3b4c337b70d-attr-2-key" class="er entityLabel"/><rect height="22" width="47.21253967285156" y="46" x="137.0695037841797" class="er attributeBoxEven"/><text style="dominant-baseline: middle; font-size: 10.2px;" transform="translate(142.0695037841797,57)" y="0" x="0" id="text-entity-Post-370696ff-9d20-4546-997c-f3b4c337b70d-attr-2-comment" class="er entityLabel"/><rect height="22" width="37.39605712890625" y="68" x="0" class="er attributeBoxOdd"/><text style="dominant-baseline: middle; font-size: 10.2px;" transform="translate(5,79)" y="0" x="0" id="text-entity-Post-370696ff-9d20-4546-997c-f3b4c337b70d-attr-3-type" class="er entityLabel">String</text><rect height="22" width="76.98576354980469" y="68" x="37.39605712890625" class="er attributeBoxOdd"/><text style="dominant-baseline: middle; font-size: 10.2px;" transform="translate(42.39605712890625,79)" y="0" x="0" id="text-entity-Post-370696ff-9d20-4546-997c-f3b4c337b70d-attr-3-name" class="er entityLabel">title</text><rect height="22" width="22.68768310546875" y="68" x="114.38182067871094" class="er attributeBoxOdd"/><text style="dominant-baseline: middle; font-size: 10.2px;" transform="translate(119.38182067871094,79)" y="0" x="0" id="text-entity-Post-370696ff-9d20-4546-997c-f3b4c337b70d-attr-3-key" class="er entityLabel"/><rect height="22" width="47.21253967285156" y="68" x="137.0695037841797" class="er attributeBoxOdd"/><text style="dominant-baseline: middle; font-size: 10.2px;" transform="translate(142.0695037841797,79)" y="0" x="0" id="text-entity-Post-370696ff-9d20-4546-997c-f3b4c337b70d-attr-3-comment" class="er entityLabel"/><rect height="22" width="37.39605712890625" y="90" x="0" class="er attributeBoxEven"/><text style="dominant-baseline: middle; font-size: 10.2px;" transform="translate(5,101)" y="0" x="0" id="text-entity-Post-370696ff-9d20-4546-997c-f3b4c337b70d-attr-4-type" class="er entityLabel">String</text><rect height="22" width="76.98576354980469" y="90" x="37.39605712890625" class="er attributeBoxEven"/><text style="dominant-baseline: middle; font-size: 10.2px;" transform="translate(42.39605712890625,101)" y="0" x="0" id="text-entity-Post-370696ff-9d20-4546-997c-f3b4c337b70d-attr-4-name" class="er entityLabel">content</text><rect height="22" width="22.68768310546875" y="90" x="114.38182067871094" class="er attributeBoxEven"/><text style="dominant-baseline: middle; font-size: 10.2px;" transform="translate(119.38182067871094,101)" y="0" x="0" id="text-entity-Post-370696ff-9d20-4546-997c-f3b4c337b70d-attr-4-key" class="er entityLabel"/><rect height="22" width="47.21253967285156" y="90" x="137.0695037841797" class="er attributeBoxEven"/><text style="dominant-baseline: middle; font-size: 10.2px;" transform="translate(142.0695037841797,101)" y="0" x="0" id="text-entity-Post-370696ff-9d20-4546-997c-f3b4c337b70d-attr-4-comment" class="er entityLabel"/><rect height="22" width="37.39605712890625" y="112" x="0" class="er attributeBoxOdd"/><text style="dominant-baseline: middle; font-size: 10.2px;" transform="translate(5,123)" y="0" x="0" id="text-entity-Post-370696ff-9d20-4546-997c-f3b4c337b70d-attr-5-type" class="er entityLabel">String</text><rect height="22" width="76.98576354980469" y="112" x="37.39605712890625" class="er attributeBoxOdd"/><text style="dominant-baseline: middle; font-size: 10.2px;" transform="translate(42.39605712890625,123)" y="0" x="0" id="text-entity-Post-370696ff-9d20-4546-997c-f3b4c337b70d-attr-5-name" class="er entityLabel">imageDataURL</text><rect height="22" width="22.68768310546875" y="112" x="114.38182067871094" class="er attributeBoxOdd"/><text style="dominant-baseline: middle; font-size: 10.2px;" transform="translate(119.38182067871094,123)" y="0" x="0" id="text-entity-Post-370696ff-9d20-4546-997c-f3b4c337b70d-attr-5-key" class="er entityLabel"/><rect height="22" width="47.21253967285156" y="112" x="137.0695037841797" class="er attributeBoxOdd"/><text style="dominant-baseline: middle; font-size: 10.2px;" transform="translate(142.0695037841797,123)" y="0" x="0" id="text-entity-Post-370696ff-9d20-4546-997c-f3b4c337b70d-attr-5-comment" class="er entityLabel">nullable</text></g><g transform="translate(181.44224166870117,254 )" id="entity-User-ff944926-1f29-460e-8387-3d451afd6229"><rect height="90" width="111.54463195800781" y="0" x="0" class="er entityBox"/><text style="dominant-baseline: middle; text-anchor: middle; font-size: 12px;" transform="translate(55.772315979003906,12)" y="0" x="0" id="text-entity-User-ff944926-1f29-460e-8387-3d451afd6229" class="er entityLabel">User</text><rect height="22" width="37.39605712890625" y="24" x="0" class="er attributeBoxOdd"/><text style="dominant-baseline: middle; font-size: 10.2px;" transform="translate(5,35)" y="0" x="0" id="text-entity-User-ff944926-1f29-460e-8387-3d451afd6229-attr-1-type" class="er entityLabel">Int</text><rect height="22" width="51.46089172363281" y="24" x="37.39605712890625" class="er attributeBoxOdd"/><text style="dominant-baseline: middle; font-size: 10.2px;" transform="translate(42.39605712890625,35)" y="0" x="0" id="text-entity-User-ff944926-1f29-460e-8387-3d451afd6229-attr-1-name" class="er entityLabel">id</text><rect height="22" width="22.68768310546875" y="24" x="88.85694885253906" class="er attributeBoxOdd"/><text style="dominant-baseline: middle; font-size: 10.2px;" transform="translate(93.85694885253906,35)" y="0" x="0" id="text-entity-User-ff944926-1f29-460e-8387-3d451afd6229-attr-1-key" class="er entityLabel">PK</text><rect height="22" width="37.39605712890625" y="46" x="0" class="er attributeBoxEven"/><text style="dominant-baseline: middle; font-size: 10.2px;" transform="translate(5,57)" y="0" x="0" id="text-entity-User-ff944926-1f29-460e-8387-3d451afd6229-attr-2-type" class="er entityLabel">String</text><rect height="22" width="51.46089172363281" y="46" x="37.39605712890625" class="er attributeBoxEven"/><text style="dominant-baseline: middle; font-size: 10.2px;" transform="translate(42.39605712890625,57)" y="0" x="0" id="text-entity-User-ff944926-1f29-460e-8387-3d451afd6229-attr-2-name" class="er entityLabel">name</text><rect height="22" width="22.68768310546875" y="46" x="88.85694885253906" class="er attributeBoxEven"/><text style="dominant-baseline: middle; font-size: 10.2px;" transform="translate(93.85694885253906,57)" y="0" x="0" id="text-entity-User-ff944926-1f29-460e-8387-3d451afd6229-attr-2-key" class="er entityLabel"/><rect height="22" width="37.39605712890625" y="68" x="0" class="er attributeBoxOdd"/><text style="dominant-baseline: middle; font-size: 10.2px;" transform="translate(5,79)" y="0" x="0" id="text-entity-User-ff944926-1f29-460e-8387-3d451afd6229-attr-3-type" class="er entityLabel">String</text><rect height="22" width="51.46089172363281" y="68" x="37.39605712890625" class="er attributeBoxOdd"/><text style="dominant-baseline: middle; font-size: 10.2px;" transform="translate(42.39605712890625,79)" y="0" x="0" id="text-entity-User-ff944926-1f29-460e-8387-3d451afd6229-attr-3-name" class="er entityLabel">passHash</text><rect height="22" width="22.68768310546875" y="68" x="88.85694885253906" class="er attributeBoxOdd"/><text style="dominant-baseline: middle; font-size: 10.2px;" transform="translate(93.85694885253906,79)" y="0" x="0" id="text-entity-User-ff944926-1f29-460e-8387-3d451afd6229-attr-3-key" class="er entityLabel"/></g><g transform="translate(304.28204345703125,31 )" id="entity-Session-69defa2a-d623-48f6-ada7-11da60453c26"><rect height="112" width="116.01210021972656" y="0" x="0" class="er entityBox"/><text style="dominant-baseline: middle; text-anchor: middle; font-size: 12px;" transform="translate(58.00605010986328,12)" y="0" x="0" id="text-entity-Session-69defa2a-d623-48f6-ada7-11da60453c26" class="er entityLabel">Session</text><rect height="22" width="54.095550537109375" y="24" x="0" class="er attributeBoxOdd"/><text style="dominant-baseline: middle; font-size: 10.2px;" transform="translate(5,35)" y="0" x="0" id="text-entity-Session-69defa2a-d623-48f6-ada7-11da60453c26-attr-1-type" class="er entityLabel">Int</text><rect height="22" width="39.22886657714844" y="24" x="54.095550537109375" class="er attributeBoxOdd"/><text style="dominant-baseline: middle; font-size: 10.2px;" transform="translate(59.095550537109375,35)" y="0" x="0" id="text-entity-Session-69defa2a-d623-48f6-ada7-11da60453c26-attr-1-name" class="er entityLabel">id</text><rect height="22" width="22.68768310546875" y="24" x="93.32441711425781" class="er attributeBoxOdd"/><text style="dominant-baseline: middle; font-size: 10.2px;" transform="translate(98.32441711425781,35)" y="0" x="0" id="text-entity-Session-69defa2a-d623-48f6-ada7-11da60453c26-attr-1-key" class="er entityLabel">PK</text><rect height="22" width="54.095550537109375" y="46" x="0" class="er attributeBoxEven"/><text style="dominant-baseline: middle; font-size: 10.2px;" transform="translate(5,57)" y="0" x="0" id="text-entity-Session-69defa2a-d623-48f6-ada7-11da60453c26-attr-2-type" class="er entityLabel">Int</text><rect height="22" width="39.22886657714844" y="46" x="54.095550537109375" class="er attributeBoxEven"/><text style="dominant-baseline: middle; font-size: 10.2px;" transform="translate(59.095550537109375,57)" y="0" x="0" id="text-entity-Session-69defa2a-d623-48f6-ada7-11da60453c26-attr-2-name" class="er entityLabel">userId</text><rect height="22" width="22.68768310546875" y="46" x="93.32441711425781" class="er attributeBoxEven"/><text style="dominant-baseline: middle; font-size: 10.2px;" transform="translate(98.32441711425781,57)" y="0" x="0" id="text-entity-Session-69defa2a-d623-48f6-ada7-11da60453c26-attr-2-key" class="er entityLabel"/><rect height="22" width="54.095550537109375" y="68" x="0" class="er attributeBoxOdd"/><text style="dominant-baseline: middle; font-size: 10.2px;" transform="translate(5,79)" y="0" x="0" id="text-entity-Session-69defa2a-d623-48f6-ada7-11da60453c26-attr-3-type" class="er entityLabel">String</text><rect height="22" width="39.22886657714844" y="68" x="54.095550537109375" class="er attributeBoxOdd"/><text style="dominant-baseline: middle; font-size: 10.2px;" transform="translate(59.095550537109375,79)" y="0" x="0" id="text-entity-Session-69defa2a-d623-48f6-ada7-11da60453c26-attr-3-name" class="er entityLabel">key</text><rect height="22" width="22.68768310546875" y="68" x="93.32441711425781" class="er attributeBoxOdd"/><text style="dominant-baseline: middle; font-size: 10.2px;" transform="translate(98.32441711425781,79)" y="0" x="0" id="text-entity-Session-69defa2a-d623-48f6-ada7-11da60453c26-attr-3-key" class="er entityLabel"/><rect height="22" width="54.095550537109375" y="90" x="0" class="er attributeBoxEven"/><text style="dominant-baseline: middle; font-size: 10.2px;" transform="translate(5,101)" y="0" x="0" id="text-entity-Session-69defa2a-d623-48f6-ada7-11da60453c26-attr-4-type" class="er entityLabel">DateTime</text><rect height="22" width="39.22886657714844" y="90" x="54.095550537109375" class="er attributeBoxEven"/><text style="dominant-baseline: middle; font-size: 10.2px;" transform="translate(59.095550537109375,101)" y="0" x="0" id="text-entity-Session-69defa2a-d623-48f6-ada7-11da60453c26-attr-4-name" class="er entityLabel">expire</text><rect height="22" width="22.68768310546875" y="90" x="93.32441711425781" class="er attributeBoxEven"/><text style="dominant-baseline: middle; font-size: 10.2px;" transform="translate(98.32441711425781,101)" y="0" x="0" id="text-entity-Session-69defa2a-d623-48f6-ada7-11da60453c26-attr-4-key" class="er entityLabel"/></g><rect height="14" width="36.615234375" y="207.4099578857422" x="113.27008056640625" class="er relationshipLabelBox"/><text style="text-anchor: middle; dominant-baseline: middle; font-size: 12px;" y="214.4099578857422" x="131.57769775390625" id="rel1" class="er relationshipLabel">author</text><rect height="14" width="23.958984375" y="202.96612548828125" x="333.67242431640625" class="er relationshipLabelBox"/><text style="text-anchor: middle; dominant-baseline: middle; font-size: 12px;" y="209.96612548828125" x="345.65191650390625" id="rel2" class="er relationshipLabel">user</text></svg>