<svg aria-roledescription="er" viewBox="0 0 575.9625244140625 664" style="max-width: 575.963px; background-color: white;" xmlns:xlink="http://www.w3.org/1999/xlink" xmlns="http://www.w3.org/2000/svg" width="100%" id="mermaid-0"><style>#mermaid-0{font-family:"trebuchet ms",verdana,arial,sans-serif;font-size:16px;fill:#000000;}#mermaid-0 .error-icon{fill:#552222;}#mermaid-0 .error-text{fill:#552222;stroke:#552222;}#mermaid-0 .edge-thickness-normal{stroke-width:2px;}#mermaid-0 .edge-thickness-thick{stroke-width:3.5px;}#mermaid-0 .edge-pattern-solid{stroke-dasharray:0;}#mermaid-0 .edge-pattern-dashed{stroke-dasharray:3;}#mermaid-0 .edge-pattern-dotted{stroke-dasharray:2;}#mermaid-0 .marker{fill:#000000;stroke:#000000;}#mermaid-0 .marker.cross{stroke:#000000;}#mermaid-0 svg{font-family:"trebuchet ms",verdana,arial,sans-serif;font-size:16px;}#mermaid-0 .entityBox{fill:#cde498;stroke:#13540c;}#mermaid-0 .attributeBoxOdd{fill:#ffffff;stroke:#13540c;}#mermaid-0 .attributeBoxEven{fill:#f2f2f2;stroke:#13540c;}#mermaid-0 .relationshipLabelBox{fill:hsl(78.1578947368, 58.4615384615%, 84.5098039216%);opacity:0.7;background-color:hsl(78.1578947368, 58.4615384615%, 84.5098039216%);}#mermaid-0 .relationshipLabelBox rect{opacity:0.5;}#mermaid-0 .relationshipLine{stroke:#000000;}#mermaid-0 .entityTitleText{text-anchor:middle;font-size:18px;fill:#000000;}#mermaid-0 :root{--mermaid-font-family:"trebuchet ms",verdana,arial,sans-serif;}</style><g/><defs><marker orient="auto" markerHeight="18" markerWidth="18" refY="9" refX="0" id="ONLY_ONE_START"><path d="M9,0 L9,18 M15,0 L15,18" fill="none" stroke="gray"/></marker></defs><defs><marker orient="auto" markerHeight="18" markerWidth="18" refY="9" refX="18" id="ONLY_ONE_END"><path d="M3,0 L3,18 M9,0 L9,18" fill="none" stroke="gray"/></marker></defs><defs><marker orient="auto" markerHeight="18" markerWidth="30" refY="9" refX="0" id="ZERO_OR_ONE_START"><circle r="6" cy="9" cx="21" fill="white" stroke="gray"/><path d="M9,0 L9,18" fill="none" stroke="gray"/></marker></defs><defs><marker orient="auto" markerHeight="18" markerWidth="30" refY="9" refX="30" id="ZERO_OR_ONE_END"><circle r="6" cy="9" cx="9" fill="white" stroke="gray"/><path d="M21,0 L21,18" fill="none" stroke="gray"/></marker></defs><defs><marker orient="auto" markerHeight="36" markerWidth="45" refY="18" refX="18" id="ONE_OR_MORE_START"><path d="M0,18 Q 18,0 36,18 Q 18,36 0,18 M42,9 L42,27" fill="none" stroke="gray"/></marker></defs><defs><marker orient="auto" markerHeight="36" markerWidth="45" refY="18" refX="27" id="ONE_OR_MORE_END"><path d="M3,9 L3,27 M9,18 Q27,0 45,18 Q27,36 9,18" fill="none" stroke="gray"/></marker></defs><defs><marker orient="auto" markerHeight="36" markerWidth="57" refY="18" refX="18" id="ZERO_OR_MORE_START"><circle r="6" cy="18" cx="48" fill="white" stroke="gray"/><path d="M0,18 Q18,0 36,18 Q18,36 0,18" fill="none" stroke="gray"/></marker></defs><defs><marker orient="auto" markerHeight="36" markerWidth="57" refY="18" refX="39" id="ZERO_OR_MORE_END"><circle r="6" cy="18" cx="9" fill="white" stroke="gray"/><path d="M21,18 Q39,0 57,18 Q39,36 21,18" fill="none" stroke="gray"/></marker></defs><path style="stroke: gray; fill: none;" marker-start="url(#ZERO_OR_MORE_START)" marker-end="url(#ONLY_ONE_END)" d="M120.49076843261719,454L120.49076843261719,462.3333333333333C120.49076843261719,470.6666666666667,120.49076843261719,487.3333333333333,147.33703486124674,507.4277748783213C174.1833012898763,527.5222164233093,227.8758341471354,551.0444328466186,254.72210057576498,562.8055410582733L281.56836700439453,574.566649269928" class="er relationshipLine"/><path style="stroke: gray; fill: none;" marker-start="url(#ZERO_OR_MORE_START)" marker-end="url(#ONLY_ONE_END)" d="M378.98758697509766,421L378.98758697509766,434.8333333333333C378.98758697509766,448.6666666666667,378.98758697509766,476.3333333333333,375.3343497828434,498.5C371.681112590589,520.6666666666666,364.37463820608036,537.3333333333334,360.7214010138261,545.6666666666666L357.0681638215718,554" class="er relationshipLine"/><path style="stroke: gray; fill: none;" marker-start="url(#ZERO_OR_MORE_START)" marker-end="url(#ONLY_ONE_END)" d="M420.0420608520508,154.11669313947587L439.53399022420246,166.09724428289655C459.0259195963542,178.07779542631724,498.00977834065753,202.0388977131586,517.5017077128092,237.186115523246C536.9936370849609,272.3333333333333,536.9936370849609,318.6666666666667,536.9936370849609,365C536.9936370849609,411.3333333333333,536.9936370849609,457.6666666666667,513.0135307312012,492.2436834273686C489.0334243774414,526.8207001880705,441.0732116699219,549.641400376141,417.0931053161621,561.0517504701762L393.11299896240234,572.4621005642115" class="er relationshipLine"/><path style="stroke: gray; fill: none;" marker-start="url(#ZERO_OR_MORE_START)" marker-end="url(#ONLY_ONE_END)" d="M237.44234466552734,154.11669313947587L217.95041529337564,166.09724428289655C198.45848592122397,178.07779542631724,159.47462717692056,202.0388977131586,139.9826978047689,222.35278218991266C120.49076843261719,242.66666666666666,120.49076843261719,259.3333333333333,120.49076843261719,267.6666666666667L120.49076843261719,276" class="er relationshipLine"/><g transform="translate(20,276 )" id="entity-Post-a32b16df-9623-4211-ab98-42a1d336b435"><rect height="178" width="200.98153686523438" y="0" x="0" class="er entityBox"/><text style="dominant-baseline: middle; text-anchor: middle; font-size: 12px;" transform="translate(100.49076843261719,12)" y="0" x="0" id="text-entity-Post-a32b16df-9623-4211-ab98-42a1d336b435" class="er entityLabel">Post</text><rect height="22" width="54.095550537109375" y="24" x="0" class="er attributeBoxOdd"/><text style="dominant-baseline: middle; font-size: 10.2px;" transform="translate(5,35)" y="0" x="0" id="text-entity-Post-a32b16df-9623-4211-ab98-42a1d336b435-attr-1-type" class="er entityLabel">Int</text><rect height="22" width="76.98576354980469" y="24" x="54.095550537109375" class="er attributeBoxOdd"/><text style="dominant-baseline: middle; font-size: 10.2px;" transform="translate(59.095550537109375,35)" y="0" x="0" id="text-entity-Post-a32b16df-9623-4211-ab98-42a1d336b435-attr-1-name" class="er entityLabel">id</text><rect height="22" width="22.68768310546875" y="24" x="131.08131408691406" class="er attributeBoxOdd"/><text style="dominant-baseline: middle; font-size: 10.2px;" transform="translate(136.08131408691406,35)" y="0" x="0" id="text-entity-Post-a32b16df-9623-4211-ab98-42a1d336b435-attr-1-key" class="er entityLabel">PK</text><rect height="22" width="47.21253967285156" y="24" x="153.7689971923828" class="er attributeBoxOdd"/><text style="dominant-baseline: middle; font-size: 10.2px;" transform="translate(158.7689971923828,35)" y="0" x="0" id="text-entity-Post-a32b16df-9623-4211-ab98-42a1d336b435-attr-1-comment" class="er entityLabel"/><rect height="22" width="54.095550537109375" y="46" x="0" class="er attributeBoxEven"/><text style="dominant-baseline: middle; font-size: 10.2px;" transform="translate(5,57)" y="0" x="0" id="text-entity-Post-a32b16df-9623-4211-ab98-42a1d336b435-attr-2-type" class="er entityLabel">Int</text><rect height="22" width="76.98576354980469" y="46" x="54.095550537109375" class="er attributeBoxEven"/><text style="dominant-baseline: middle; font-size: 10.2px;" transform="translate(59.095550537109375,57)" y="0" x="0" id="text-entity-Post-a32b16df-9623-4211-ab98-42a1d336b435-attr-2-name" class="er entityLabel">authorId</text><rect height="22" width="22.68768310546875" y="46" x="131.08131408691406" class="er attributeBoxEven"/><text style="dominant-baseline: middle; font-size: 10.2px;" transform="translate(136.08131408691406,57)" y="0" x="0" id="text-entity-Post-a32b16df-9623-4211-ab98-42a1d336b435-attr-2-key" class="er entityLabel"/><rect height="22" width="47.21253967285156" y="46" x="153.7689971923828" class="er attributeBoxEven"/><text style="dominant-baseline: middle; font-size: 10.2px;" transform="translate(158.7689971923828,57)" y="0" x="0" id="text-entity-Post-a32b16df-9623-4211-ab98-42a1d336b435-attr-2-comment" class="er entityLabel"/><rect height="22" width="54.095550537109375" y="68" x="0" class="er attributeBoxOdd"/><text style="dominant-baseline: middle; font-size: 10.2px;" transform="translate(5,79)" y="0" x="0" id="text-entity-Post-a32b16df-9623-4211-ab98-42a1d336b435-attr-3-type" class="er entityLabel">String</text><rect height="22" width="76.98576354980469" y="68" x="54.095550537109375" class="er attributeBoxOdd"/><text style="dominant-baseline: middle; font-size: 10.2px;" transform="translate(59.095550537109375,79)" y="0" x="0" id="text-entity-Post-a32b16df-9623-4211-ab98-42a1d336b435-attr-3-name" class="er entityLabel">title</text><rect height="22" width="22.68768310546875" y="68" x="131.08131408691406" class="er attributeBoxOdd"/><text style="dominant-baseline: middle; font-size: 10.2px;" transform="translate(136.08131408691406,79)" y="0" x="0" id="text-entity-Post-a32b16df-9623-4211-ab98-42a1d336b435-attr-3-key" class="er entityLabel"/><rect height="22" width="47.21253967285156" y="68" x="153.7689971923828" class="er attributeBoxOdd"/><text style="dominant-baseline: middle; font-size: 10.2px;" transform="translate(158.7689971923828,79)" y="0" x="0" id="text-entity-Post-a32b16df-9623-4211-ab98-42a1d336b435-attr-3-comment" class="er entityLabel"/><rect height="22" width="54.095550537109375" y="90" x="0" class="er attributeBoxEven"/><text style="dominant-baseline: middle; font-size: 10.2px;" transform="translate(5,101)" y="0" x="0" id="text-entity-Post-a32b16df-9623-4211-ab98-42a1d336b435-attr-4-type" class="er entityLabel">String</text><rect height="22" width="76.98576354980469" y="90" x="54.095550537109375" class="er attributeBoxEven"/><text style="dominant-baseline: middle; font-size: 10.2px;" transform="translate(59.095550537109375,101)" y="0" x="0" id="text-entity-Post-a32b16df-9623-4211-ab98-42a1d336b435-attr-4-name" class="er entityLabel">content</text><rect height="22" width="22.68768310546875" y="90" x="131.08131408691406" class="er attributeBoxEven"/><text style="dominant-baseline: middle; font-size: 10.2px;" transform="translate(136.08131408691406,101)" y="0" x="0" id="text-entity-Post-a32b16df-9623-4211-ab98-42a1d336b435-attr-4-key" class="er entityLabel"/><rect height="22" width="47.21253967285156" y="90" x="153.7689971923828" class="er attributeBoxEven"/><text style="dominant-baseline: middle; font-size: 10.2px;" transform="translate(158.7689971923828,101)" y="0" x="0" id="text-entity-Post-a32b16df-9623-4211-ab98-42a1d336b435-attr-4-comment" class="er entityLabel"/><rect height="22" width="54.095550537109375" y="112" x="0" class="er attributeBoxOdd"/><text style="dominant-baseline: middle; font-size: 10.2px;" transform="translate(5,123)" y="0" x="0" id="text-entity-Post-a32b16df-9623-4211-ab98-42a1d336b435-attr-5-type" class="er entityLabel">String</text><rect height="22" width="76.98576354980469" y="112" x="54.095550537109375" class="er attributeBoxOdd"/><text style="dominant-baseline: middle; font-size: 10.2px;" transform="translate(59.095550537109375,123)" y="0" x="0" id="text-entity-Post-a32b16df-9623-4211-ab98-42a1d336b435-attr-5-name" class="er entityLabel">imageDataURL</text><rect height="22" width="22.68768310546875" y="112" x="131.08131408691406" class="er attributeBoxOdd"/><text style="dominant-baseline: middle; font-size: 10.2px;" transform="translate(136.08131408691406,123)" y="0" x="0" id="text-entity-Post-a32b16df-9623-4211-ab98-42a1d336b435-attr-5-key" class="er entityLabel"/><rect height="22" width="47.21253967285156" y="112" x="153.7689971923828" class="er attributeBoxOdd"/><text style="dominant-baseline: middle; font-size: 10.2px;" transform="translate(158.7689971923828,123)" y="0" x="0" id="text-entity-Post-a32b16df-9623-4211-ab98-42a1d336b435-attr-5-comment" class="er entityLabel">nullable</text><rect height="22" width="54.095550537109375" y="134" x="0" class="er attributeBoxEven"/><text style="dominant-baseline: middle; font-size: 10.2px;" transform="translate(5,145)" y="0" x="0" id="text-entity-Post-a32b16df-9623-4211-ab98-42a1d336b435-attr-6-type" class="er entityLabel">DateTime</text><rect height="22" width="76.98576354980469" y="134" x="54.095550537109375" class="er attributeBoxEven"/><text style="dominant-baseline: middle; font-size: 10.2px;" transform="translate(59.095550537109375,145)" y="0" x="0" id="text-entity-Post-a32b16df-9623-4211-ab98-42a1d336b435-attr-6-name" class="er entityLabel">createdAt</text><rect height="22" width="22.68768310546875" y="134" x="131.08131408691406" class="er attributeBoxEven"/><text style="dominant-baseline: middle; font-size: 10.2px;" transform="translate(136.08131408691406,145)" y="0" x="0" id="text-entity-Post-a32b16df-9623-4211-ab98-42a1d336b435-attr-6-key" class="er entityLabel"/><rect height="22" width="47.21253967285156" y="134" x="153.7689971923828" class="er attributeBoxEven"/><text style="dominant-baseline: middle; font-size: 10.2px;" transform="translate(158.7689971923828,145)" y="0" x="0" id="text-entity-Post-a32b16df-9623-4211-ab98-42a1d336b435-attr-6-comment" class="er entityLabel"/><rect height="22" width="54.095550537109375" y="156" x="0" class="er attributeBoxOdd"/><text style="dominant-baseline: middle; font-size: 10.2px;" transform="translate(5,167)" y="0" x="0" id="text-entity-Post-a32b16df-9623-4211-ab98-42a1d336b435-attr-7-type" class="er entityLabel">DateTime</text><rect height="22" width="76.98576354980469" y="156" x="54.095550537109375" class="er attributeBoxOdd"/><text style="dominant-baseline: middle; font-size: 10.2px;" transform="translate(59.095550537109375,167)" y="0" x="0" id="text-entity-Post-a32b16df-9623-4211-ab98-42a1d336b435-attr-7-name" class="er entityLabel">updatedAt</text><rect height="22" width="22.68768310546875" y="156" x="131.08131408691406" class="er attributeBoxOdd"/><text style="dominant-baseline: middle; font-size: 10.2px;" transform="translate(136.08131408691406,167)" y="0" x="0" id="text-entity-Post-a32b16df-9623-4211-ab98-42a1d336b435-attr-7-key" class="er entityLabel"/><rect height="22" width="47.21253967285156" y="156" x="153.7689971923828" class="er attributeBoxOdd"/><text style="dominant-baseline: middle; font-size: 10.2px;" transform="translate(158.7689971923828,167)" y="0" x="0" id="text-entity-Post-a32b16df-9623-4211-ab98-42a1d336b435-attr-7-comment" class="er entityLabel">nullable</text></g><g transform="translate(281.56836700439453,554 )" id="entity-User-c4aeb946-74d8-4557-a46d-4470adf4a1a6"><rect height="90" width="111.54463195800781" y="0" x="0" class="er entityBox"/><text style="dominant-baseline: middle; text-anchor: middle; font-size: 12px;" transform="translate(55.772315979003906,12)" y="0" x="0" id="text-entity-User-c4aeb946-74d8-4557-a46d-4470adf4a1a6" class="er entityLabel">User</text><rect height="22" width="37.39605712890625" y="24" x="0" class="er attributeBoxOdd"/><text style="dominant-baseline: middle; font-size: 10.2px;" transform="translate(5,35)" y="0" x="0" id="text-entity-User-c4aeb946-74d8-4557-a46d-4470adf4a1a6-attr-1-type" class="er entityLabel">Int</text><rect height="22" width="51.46089172363281" y="24" x="37.39605712890625" class="er attributeBoxOdd"/><text style="dominant-baseline: middle; font-size: 10.2px;" transform="translate(42.39605712890625,35)" y="0" x="0" id="text-entity-User-c4aeb946-74d8-4557-a46d-4470adf4a1a6-attr-1-name" class="er entityLabel">id</text><rect height="22" width="22.68768310546875" y="24" x="88.85694885253906" class="er attributeBoxOdd"/><text style="dominant-baseline: middle; font-size: 10.2px;" transform="translate(93.85694885253906,35)" y="0" x="0" id="text-entity-User-c4aeb946-74d8-4557-a46d-4470adf4a1a6-attr-1-key" class="er entityLabel">PK</text><rect height="22" width="37.39605712890625" y="46" x="0" class="er attributeBoxEven"/><text style="dominant-baseline: middle; font-size: 10.2px;" transform="translate(5,57)" y="0" x="0" id="text-entity-User-c4aeb946-74d8-4557-a46d-4470adf4a1a6-attr-2-type" class="er entityLabel">String</text><rect height="22" width="51.46089172363281" y="46" x="37.39605712890625" class="er attributeBoxEven"/><text style="dominant-baseline: middle; font-size: 10.2px;" transform="translate(42.39605712890625,57)" y="0" x="0" id="text-entity-User-c4aeb946-74d8-4557-a46d-4470adf4a1a6-attr-2-name" class="er entityLabel">name</text><rect height="22" width="22.68768310546875" y="46" x="88.85694885253906" class="er attributeBoxEven"/><text style="dominant-baseline: middle; font-size: 10.2px;" transform="translate(93.85694885253906,57)" y="0" x="0" id="text-entity-User-c4aeb946-74d8-4557-a46d-4470adf4a1a6-attr-2-key" class="er entityLabel"/><rect height="22" width="37.39605712890625" y="68" x="0" class="er attributeBoxOdd"/><text style="dominant-baseline: middle; font-size: 10.2px;" transform="translate(5,79)" y="0" x="0" id="text-entity-User-c4aeb946-74d8-4557-a46d-4470adf4a1a6-attr-3-type" class="er entityLabel">String</text><rect height="22" width="51.46089172363281" y="68" x="37.39605712890625" class="er attributeBoxOdd"/><text style="dominant-baseline: middle; font-size: 10.2px;" transform="translate(42.39605712890625,79)" y="0" x="0" id="text-entity-User-c4aeb946-74d8-4557-a46d-4470adf4a1a6-attr-3-name" class="er entityLabel">passHash</text><rect height="22" width="22.68768310546875" y="68" x="88.85694885253906" class="er attributeBoxOdd"/><text style="dominant-baseline: middle; font-size: 10.2px;" transform="translate(93.85694885253906,79)" y="0" x="0" id="text-entity-User-c4aeb946-74d8-4557-a46d-4470adf4a1a6-attr-3-key" class="er entityLabel"/></g><g transform="translate(320.9815368652344,309 )" id="entity-Session-69a9669c-08a1-4f6f-b246-bebd70c1fe28"><rect height="112" width="116.01210021972656" y="0" x="0" class="er entityBox"/><text style="dominant-baseline: middle; text-anchor: middle; font-size: 12px;" transform="translate(58.00605010986328,12)" y="0" x="0" id="text-entity-Session-69a9669c-08a1-4f6f-b246-bebd70c1fe28" class="er entityLabel">Session</text><rect height="22" width="54.095550537109375" y="24" x="0" class="er attributeBoxOdd"/><text style="dominant-baseline: middle; font-size: 10.2px;" transform="translate(5,35)" y="0" x="0" id="text-entity-Session-69a9669c-08a1-4f6f-b246-bebd70c1fe28-attr-1-type" class="er entityLabel">Int</text><rect height="22" width="39.22886657714844" y="24" x="54.095550537109375" class="er attributeBoxOdd"/><text style="dominant-baseline: middle; font-size: 10.2px;" transform="translate(59.095550537109375,35)" y="0" x="0" id="text-entity-Session-69a9669c-08a1-4f6f-b246-bebd70c1fe28-attr-1-name" class="er entityLabel">id</text><rect height="22" width="22.68768310546875" y="24" x="93.32441711425781" class="er attributeBoxOdd"/><text style="dominant-baseline: middle; font-size: 10.2px;" transform="translate(98.32441711425781,35)" y="0" x="0" id="text-entity-Session-69a9669c-08a1-4f6f-b246-bebd70c1fe28-attr-1-key" class="er entityLabel">PK</text><rect height="22" width="54.095550537109375" y="46" x="0" class="er attributeBoxEven"/><text style="dominant-baseline: middle; font-size: 10.2px;" transform="translate(5,57)" y="0" x="0" id="text-entity-Session-69a9669c-08a1-4f6f-b246-bebd70c1fe28-attr-2-type" class="er entityLabel">Int</text><rect height="22" width="39.22886657714844" y="46" x="54.095550537109375" class="er attributeBoxEven"/><text style="dominant-baseline: middle; font-size: 10.2px;" transform="translate(59.095550537109375,57)" y="0" x="0" id="text-entity-Session-69a9669c-08a1-4f6f-b246-bebd70c1fe28-attr-2-name" class="er entityLabel">userId</text><rect height="22" width="22.68768310546875" y="46" x="93.32441711425781" class="er attributeBoxEven"/><text style="dominant-baseline: middle; font-size: 10.2px;" transform="translate(98.32441711425781,57)" y="0" x="0" id="text-entity-Session-69a9669c-08a1-4f6f-b246-bebd70c1fe28-attr-2-key" class="er entityLabel"/><rect height="22" width="54.095550537109375" y="68" x="0" class="er attributeBoxOdd"/><text style="dominant-baseline: middle; font-size: 10.2px;" transform="translate(5,79)" y="0" x="0" id="text-entity-Session-69a9669c-08a1-4f6f-b246-bebd70c1fe28-attr-3-type" class="er entityLabel">String</text><rect height="22" width="39.22886657714844" y="68" x="54.095550537109375" class="er attributeBoxOdd"/><text style="dominant-baseline: middle; font-size: 10.2px;" transform="translate(59.095550537109375,79)" y="0" x="0" id="text-entity-Session-69a9669c-08a1-4f6f-b246-bebd70c1fe28-attr-3-name" class="er entityLabel">key</text><rect height="22" width="22.68768310546875" y="68" x="93.32441711425781" class="er attributeBoxOdd"/><text style="dominant-baseline: middle; font-size: 10.2px;" transform="translate(98.32441711425781,79)" y="0" x="0" id="text-entity-Session-69a9669c-08a1-4f6f-b246-bebd70c1fe28-attr-3-key" class="er entityLabel"/><rect height="22" width="54.095550537109375" y="90" x="0" class="er attributeBoxEven"/><text style="dominant-baseline: middle; font-size: 10.2px;" transform="translate(5,101)" y="0" x="0" id="text-entity-Session-69a9669c-08a1-4f6f-b246-bebd70c1fe28-attr-4-type" class="er entityLabel">DateTime</text><rect height="22" width="39.22886657714844" y="90" x="54.095550537109375" class="er attributeBoxEven"/><text style="dominant-baseline: middle; font-size: 10.2px;" transform="translate(59.095550537109375,101)" y="0" x="0" id="text-entity-Session-69a9669c-08a1-4f6f-b246-bebd70c1fe28-attr-4-name" class="er entityLabel">expire</text><rect height="22" width="22.68768310546875" y="90" x="93.32441711425781" class="er attributeBoxEven"/><text style="dominant-baseline: middle; font-size: 10.2px;" transform="translate(98.32441711425781,101)" y="0" x="0" id="text-entity-Session-69a9669c-08a1-4f6f-b246-bebd70c1fe28-attr-4-key" class="er entityLabel"/></g><g transform="translate(37.442344665527344,64 )" id="entity-Tag-e0762985-6294-40e5-b512-177015cb9ac8"><rect height="68" width="100" y="0" x="0" class="er entityBox"/><text style="dominant-baseline: middle; text-anchor: middle; font-size: 12px;" transform="translate(50,12)" y="0" x="0" id="text-entity-Tag-e0762985-6294-40e5-b512-177015cb9ac8" class="er entityLabel">Tag</text><rect height="22" width="38.90184020996094" y="24" x="0" class="er attributeBoxOdd"/><text style="dominant-baseline: middle; font-size: 10.2px;" transform="translate(5,35)" y="0" x="0" id="text-entity-Tag-e0762985-6294-40e5-b512-177015cb9ac8-attr-1-type" class="er entityLabel">Int</text><rect height="22" width="36.904693603515625" y="24" x="38.90184020996094" class="er attributeBoxOdd"/><text style="dominant-baseline: middle; font-size: 10.2px;" transform="translate(43.90184020996094,35)" y="0" x="0" id="text-entity-Tag-e0762985-6294-40e5-b512-177015cb9ac8-attr-1-name" class="er entityLabel">id</text><rect height="22" width="24.193466186523438" y="24" x="75.80653381347656" class="er attributeBoxOdd"/><text style="dominant-baseline: middle; font-size: 10.2px;" transform="translate(80.80653381347656,35)" y="0" x="0" id="text-entity-Tag-e0762985-6294-40e5-b512-177015cb9ac8-attr-1-key" class="er entityLabel">PK</text><rect height="22" width="38.90184020996094" y="46" x="0" class="er attributeBoxEven"/><text style="dominant-baseline: middle; font-size: 10.2px;" transform="translate(5,57)" y="0" x="0" id="text-entity-Tag-e0762985-6294-40e5-b512-177015cb9ac8-attr-2-type" class="er entityLabel">String</text><rect height="22" width="36.904693603515625" y="46" x="38.90184020996094" class="er attributeBoxEven"/><text style="dominant-baseline: middle; font-size: 10.2px;" transform="translate(43.90184020996094,57)" y="0" x="0" id="text-entity-Tag-e0762985-6294-40e5-b512-177015cb9ac8-attr-2-name" class="er entityLabel">name</text><rect height="22" width="24.193466186523438" y="46" x="75.80653381347656" class="er attributeBoxEven"/><text style="dominant-baseline: middle; font-size: 10.2px;" transform="translate(80.80653381347656,57)" y="0" x="0" id="text-entity-Tag-e0762985-6294-40e5-b512-177015cb9ac8-attr-2-key" class="er entityLabel"/></g><g transform="translate(237.44234466552734,20 )" id="entity-Comment-37217886-c384-44de-9591-64ea802d6759"><rect height="156" width="182.59971618652344" y="0" x="0" class="er entityBox"/><text style="dominant-baseline: middle; text-anchor: middle; font-size: 12px;" transform="translate(91.29985809326172,12)" y="0" x="0" id="text-entity-Comment-37217886-c384-44de-9591-64ea802d6759" class="er entityLabel">Comment</text><rect height="22" width="54.095550537109375" y="24" x="0" class="er attributeBoxOdd"/><text style="dominant-baseline: middle; font-size: 10.2px;" transform="translate(5,35)" y="0" x="0" id="text-entity-Comment-37217886-c384-44de-9591-64ea802d6759-attr-1-type" class="er entityLabel">Int</text><rect height="22" width="58.60394287109375" y="24" x="54.095550537109375" class="er attributeBoxOdd"/><text style="dominant-baseline: middle; font-size: 10.2px;" transform="translate(59.095550537109375,35)" y="0" x="0" id="text-entity-Comment-37217886-c384-44de-9591-64ea802d6759-attr-1-name" class="er entityLabel">id</text><rect height="22" width="22.68768310546875" y="24" x="112.69949340820312" class="er attributeBoxOdd"/><text style="dominant-baseline: middle; font-size: 10.2px;" transform="translate(117.69949340820312,35)" y="0" x="0" id="text-entity-Comment-37217886-c384-44de-9591-64ea802d6759-attr-1-key" class="er entityLabel">PK</text><rect height="22" width="47.21253967285156" y="24" x="135.38717651367188" class="er attributeBoxOdd"/><text style="dominant-baseline: middle; font-size: 10.2px;" transform="translate(140.38717651367188,35)" y="0" x="0" id="text-entity-Comment-37217886-c384-44de-9591-64ea802d6759-attr-1-comment" class="er entityLabel"/><rect height="22" width="54.095550537109375" y="46" x="0" class="er attributeBoxEven"/><text style="dominant-baseline: middle; font-size: 10.2px;" transform="translate(5,57)" y="0" x="0" id="text-entity-Comment-37217886-c384-44de-9591-64ea802d6759-attr-2-type" class="er entityLabel">Int</text><rect height="22" width="58.60394287109375" y="46" x="54.095550537109375" class="er attributeBoxEven"/><text style="dominant-baseline: middle; font-size: 10.2px;" transform="translate(59.095550537109375,57)" y="0" x="0" id="text-entity-Comment-37217886-c384-44de-9591-64ea802d6759-attr-2-name" class="er entityLabel">authorId</text><rect height="22" width="22.68768310546875" y="46" x="112.69949340820312" class="er attributeBoxEven"/><text style="dominant-baseline: middle; font-size: 10.2px;" transform="translate(117.69949340820312,57)" y="0" x="0" id="text-entity-Comment-37217886-c384-44de-9591-64ea802d6759-attr-2-key" class="er entityLabel"/><rect height="22" width="47.21253967285156" y="46" x="135.38717651367188" class="er attributeBoxEven"/><text style="dominant-baseline: middle; font-size: 10.2px;" transform="translate(140.38717651367188,57)" y="0" x="0" id="text-entity-Comment-37217886-c384-44de-9591-64ea802d6759-attr-2-comment" class="er entityLabel"/><rect height="22" width="54.095550537109375" y="68" x="0" class="er attributeBoxOdd"/><text style="dominant-baseline: middle; font-size: 10.2px;" transform="translate(5,79)" y="0" x="0" id="text-entity-Comment-37217886-c384-44de-9591-64ea802d6759-attr-3-type" class="er entityLabel">String</text><rect height="22" width="58.60394287109375" y="68" x="54.095550537109375" class="er attributeBoxOdd"/><text style="dominant-baseline: middle; font-size: 10.2px;" transform="translate(59.095550537109375,79)" y="0" x="0" id="text-entity-Comment-37217886-c384-44de-9591-64ea802d6759-attr-3-name" class="er entityLabel">message</text><rect height="22" width="22.68768310546875" y="68" x="112.69949340820312" class="er attributeBoxOdd"/><text style="dominant-baseline: middle; font-size: 10.2px;" transform="translate(117.69949340820312,79)" y="0" x="0" id="text-entity-Comment-37217886-c384-44de-9591-64ea802d6759-attr-3-key" class="er entityLabel"/><rect height="22" width="47.21253967285156" y="68" x="135.38717651367188" class="er attributeBoxOdd"/><text style="dominant-baseline: middle; font-size: 10.2px;" transform="translate(140.38717651367188,79)" y="0" x="0" id="text-entity-Comment-37217886-c384-44de-9591-64ea802d6759-attr-3-comment" class="er entityLabel"/><rect height="22" width="54.095550537109375" y="90" x="0" class="er attributeBoxEven"/><text style="dominant-baseline: middle; font-size: 10.2px;" transform="translate(5,101)" y="0" x="0" id="text-entity-Comment-37217886-c384-44de-9591-64ea802d6759-attr-4-type" class="er entityLabel">DateTime</text><rect height="22" width="58.60394287109375" y="90" x="54.095550537109375" class="er attributeBoxEven"/><text style="dominant-baseline: middle; font-size: 10.2px;" transform="translate(59.095550537109375,101)" y="0" x="0" id="text-entity-Comment-37217886-c384-44de-9591-64ea802d6759-attr-4-name" class="er entityLabel">createdAt</text><rect height="22" width="22.68768310546875" y="90" x="112.69949340820312" class="er attributeBoxEven"/><text style="dominant-baseline: middle; font-size: 10.2px;" transform="translate(117.69949340820312,101)" y="0" x="0" id="text-entity-Comment-37217886-c384-44de-9591-64ea802d6759-attr-4-key" class="er entityLabel"/><rect height="22" width="47.21253967285156" y="90" x="135.38717651367188" class="er attributeBoxEven"/><text style="dominant-baseline: middle; font-size: 10.2px;" transform="translate(140.38717651367188,101)" y="0" x="0" id="text-entity-Comment-37217886-c384-44de-9591-64ea802d6759-attr-4-comment" class="er entityLabel"/><rect height="22" width="54.095550537109375" y="112" x="0" class="er attributeBoxOdd"/><text style="dominant-baseline: middle; font-size: 10.2px;" transform="translate(5,123)" y="0" x="0" id="text-entity-Comment-37217886-c384-44de-9591-64ea802d6759-attr-5-type" class="er entityLabel">DateTime</text><rect height="22" width="58.60394287109375" y="112" x="54.095550537109375" class="er attributeBoxOdd"/><text style="dominant-baseline: middle; font-size: 10.2px;" transform="translate(59.095550537109375,123)" y="0" x="0" id="text-entity-Comment-37217886-c384-44de-9591-64ea802d6759-attr-5-name" class="er entityLabel">updatedAt</text><rect height="22" width="22.68768310546875" y="112" x="112.69949340820312" class="er attributeBoxOdd"/><text style="dominant-baseline: middle; font-size: 10.2px;" transform="translate(117.69949340820312,123)" y="0" x="0" id="text-entity-Comment-37217886-c384-44de-9591-64ea802d6759-attr-5-key" class="er entityLabel"/><rect height="22" width="47.21253967285156" y="112" x="135.38717651367188" class="er attributeBoxOdd"/><text style="dominant-baseline: middle; font-size: 10.2px;" transform="translate(140.38717651367188,123)" y="0" x="0" id="text-entity-Comment-37217886-c384-44de-9591-64ea802d6759-attr-5-comment" class="er entityLabel">nullable</text><rect height="22" width="54.095550537109375" y="134" x="0" class="er attributeBoxEven"/><text style="dominant-baseline: middle; font-size: 10.2px;" transform="translate(5,145)" y="0" x="0" id="text-entity-Comment-37217886-c384-44de-9591-64ea802d6759-attr-6-type" class="er entityLabel">Int</text><rect height="22" width="58.60394287109375" y="134" x="54.095550537109375" class="er attributeBoxEven"/><text style="dominant-baseline: middle; font-size: 10.2px;" transform="translate(59.095550537109375,145)" y="0" x="0" id="text-entity-Comment-37217886-c384-44de-9591-64ea802d6759-attr-6-name" class="er entityLabel">postId</text><rect height="22" width="22.68768310546875" y="134" x="112.69949340820312" class="er attributeBoxEven"/><text style="dominant-baseline: middle; font-size: 10.2px;" transform="translate(117.69949340820312,145)" y="0" x="0" id="text-entity-Comment-37217886-c384-44de-9591-64ea802d6759-attr-6-key" class="er entityLabel"/><rect height="22" width="47.21253967285156" y="134" x="135.38717651367188" class="er attributeBoxEven"/><text style="dominant-baseline: middle; font-size: 10.2px;" transform="translate(140.38717651367188,145)" y="0" x="0" id="text-entity-Comment-37217886-c384-44de-9591-64ea802d6759-attr-6-comment" class="er entityLabel"/></g><rect height="14" width="36.615234375" y="522.9570922851562" x="166.3451690673828" class="er relationshipLabelBox"/><text style="text-anchor: middle; dominant-baseline: middle; font-size: 12px;" y="529.9570922851562" x="184.6527862548828" id="rel1" class="er relationshipLabel">author</text><rect height="14" width="23.958984375" y="482.0641784667969" x="364.66729736328125" class="er relationshipLabelBox"/><text style="text-anchor: middle; dominant-baseline: middle; font-size: 12px;" y="489.0641784667969" x="376.64678955078125" id="rel2" class="er relationshipLabel">user</text><rect height="14" width="36.615234375" y="366.6038513183594" x="518.6802978515625" class="er relationshipLabelBox"/><text style="text-anchor: middle; dominant-baseline: middle; font-size: 12px;" y="373.6038513183594" x="536.9879150390625" id="rel3" class="er relationshipLabel">author</text><rect height="14" width="22.982421875" y="195.7411346435547" x="151.25405883789062" class="er relationshipLabelBox"/><text style="text-anchor: middle; dominant-baseline: middle; font-size: 12px;" y="202.7411346435547" x="162.74526977539062" id="rel4" class="er relationshipLabel">post</text></svg>